<?xml version="1.0" encoding="UTF-8"?>
<!DOCTYPE svg PUBLIC "-//W3C//DTD SVG 1.1//EN" "http://www.w3.org/Graphics/SVG/1.1/DTD/svg11.dtd">
<svg xmlns="http://www.w3.org/2000/svg" version="1.1" width="136px" height="37px" style="shape-rendering:geometricPrecision; text-rendering:geometricPrecision; image-rendering:optimizeQuality; fill-rule:evenodd; clip-rule:evenodd" xmlns:xlink="http://www.w3.org/1999/xlink">
<g><path style="opacity:0.811" fill="#0d9832" d="M 11.5,-0.5 C 15.5,-0.5 19.5,-0.5 23.5,-0.5C 38.0003,7.57352 40.3336,18.4069 30.5,32C 28.1019,33.5242 25.7686,35.0242 23.5,36.5C 19.8333,36.5 16.1667,36.5 12.5,36.5C 10.1667,35.1667 7.83333,35.1667 5.5,36.5C 3.5,36.5 1.5,36.5 -0.5,36.5C -0.5,34.5 -0.5,32.5 -0.5,30.5C 0.833333,28.5 0.833333,26.5 -0.5,24.5C -0.5,20.1667 -0.5,15.8333 -0.5,11.5C 0.97576,9.23138 2.47576,6.89805 4,4.5C 6.47945,2.68589 8.97945,1.01922 11.5,-0.5 Z"/></g>
<g><path style="opacity:1" fill="#f1faf2" d="M 13.5,3.5 C 28.4262,3.66913 33.9262,11.0025 30,25.5C 24.1021,32.5578 16.9354,34.2245 8.5,30.5C 4.40372,31.9191 3.40372,30.4191 5.5,26C 1.28402,15.9502 3.95068,8.45015 13.5,3.5 Z"/></g>
<g><path style="opacity:0.795" fill="#525554" d="M 40.5,7.5 C 42.1667,7.5 43.8333,7.5 45.5,7.5C 45.3342,12.1785 45.5008,16.8452 46,21.5C 47.9887,11.3763 50.6554,11.043 54,20.5C 54.3333,16.5 54.6667,12.5 55,8.5C 56.3561,7.61983 57.8561,7.28649 59.5,7.5C 58.7684,14.4756 58.4351,21.4756 58.5,28.5C 56.4727,28.6621 54.4727,28.4955 52.5,28C 51.4752,25.9285 50.6419,23.7619 50,21.5C 49.0691,23.4595 48.2357,25.4595 47.5,27.5C 45.604,28.4656 43.604,28.7989 41.5,28.5C 41.5649,21.4756 41.2316,14.4756 40.5,7.5 Z"/></g>
<g><path style="opacity:0.826" fill="#525554" d="M 80.5,7.5 C 85.2973,7.12114 89.964,7.62114 94.5,9C 96.0135,11.9156 95.6801,14.5823 93.5,17C 97.7475,21.1628 97.4141,24.8295 92.5,28C 88.5138,28.4988 84.5138,28.6655 80.5,28.5C 80.5,21.5 80.5,14.5 80.5,7.5 Z M 85.5,11.5 C 87.6648,11.1159 89.3315,11.7826 90.5,13.5C 89.3315,15.2174 87.6648,15.8841 85.5,15.5C 85.5,14.1667 85.5,12.8333 85.5,11.5 Z M 85.5,19.5 C 89.4933,18.9995 91.16,20.4995 90.5,24C 88.8659,24.4935 87.1992,24.6602 85.5,24.5C 85.5,22.8333 85.5,21.1667 85.5,19.5 Z"/></g>
<g><path style="opacity:1" fill="#0cb123" d="M 14.5,7.5 C 24.4529,7.09623 28.6196,11.7629 27,21.5C 24.1849,27.1691 19.6849,29.0024 13.5,27C 8.26848,24.3674 6.43514,20.2008 8,14.5C 9.69406,11.6424 11.8607,9.30904 14.5,7.5 Z"/></g>
<g><path style="opacity:0.794" fill="#525554" d="M 64.5,11.5 C 68.8394,10.8461 72.6727,11.8461 76,14.5C 76.4992,19.1548 76.6658,23.8215 76.5,28.5C 74.8561,28.7135 73.3561,28.3802 72,27.5C 66.4125,30.9559 62.5792,29.6225 60.5,23.5C 61,22.5 61.5,21.5 62,20.5C 64.9965,19.0894 68.1631,18.0894 71.5,17.5C 69.2009,15.2313 66.5342,14.898 63.5,16.5C 62.3162,14.533 62.6495,12.8664 64.5,11.5 Z M 67.5,21.5 C 71.5274,21.2808 72.1941,22.4475 69.5,25C 68.552,25.4828 67.552,25.6495 66.5,25.5C 66.4326,24.0413 66.7659,22.7079 67.5,21.5 Z"/></g>
<g><path style="opacity:0.815" fill="#525554" d="M 100.5,11.5 C 102.451,11.2267 103.951,11.8934 105,13.5C 111.711,9.69667 115.211,11.6967 115.5,19.5C 113.833,19.5 112.167,19.5 110.5,19.5C 110.369,15.3482 108.869,14.6815 106,17.5C 105.501,21.1516 105.335,24.8183 105.5,28.5C 103.833,28.5 102.167,28.5 100.5,28.5C 100.5,22.8333 100.5,17.1667 100.5,11.5 Z"/></g>
<g><path style="opacity:0.807" fill="#525554" d="M 123.5,11.5 C 132.649,11.1562 136.149,15.4896 134,24.5C 130.6,29.4518 126.1,30.6185 120.5,28C 117.682,24.6621 116.849,20.8288 118,16.5C 119.107,13.887 120.94,12.2203 123.5,11.5 Z M 124.5,15.5 C 129.151,16.1742 130.651,18.8408 129,23.5C 125.448,25.9785 123.281,24.9785 122.5,20.5C 122.437,18.4861 123.103,16.8194 124.5,15.5 Z"/></g>
</svg>
